<?xml version="1.0" encoding="UTF-8"?>
<svg version="1.1" xmlns="http://www.w3.org/2000/svg" width="5180" height="1392">
<path d="M0 0 C1.13356934 0.5249707 2.26713867 1.04994141 3.43505859 1.59082031 C33.19691571 15.42551581 62.38859314 31.40437974 88.29638672 51.67724609 C90.93519726 53.72612478 93.62631519 55.7011641 96.3125 57.6875 C104.68108847 63.97243451 112.69368751 70.60263552 120.41796875 77.6640625 C121.79379545 78.90875897 123.17504259 80.14830931 124.59057617 81.34765625 C131.07024794 86.86651647 137.05789648 92.87180231 143.07202148 98.88671875 C144.92477468 100.73728967 146.78538706 102.57970076 148.64648438 104.421875 C154.78268232 110.5292799 160.60464256 116.69311104 165.98706055 123.49047852 C167.95412661 125.94280988 170.00595639 128.27683455 172.1171875 130.60546875 C176.05174758 134.9883314 179.61863368 139.58313745 183.125 144.3125 C183.76679199 145.17568848 184.40858398 146.03887695 185.06982422 146.92822266 C187.05586028 149.61212094 189.03058079 152.30388878 191 155 C191.91072266 156.24547607 191.91072266 156.24547607 192.83984375 157.51611328 C202.06493101 170.21070135 210.2774024 183.3439816 218 197 C218.50772949 197.89444824 219.01545898 198.78889648 219.53857422 199.71044922 C260.90985998 272.97736165 281.56525366 354.33354524 281.3125 438.4375 C281.30976578 440.33746735 281.30976578 440.33746735 281.30697632 442.27581787 C281.25850052 462.35111384 280.63239063 482.08628593 278 502 C277.91514343 502.65585083 277.83028687 503.31170166 277.74285889 503.98742676 C274.08087678 532.20007832 267.74977215 559.61308325 259.05126953 586.70019531 C257.15251403 592.66015336 255.33200132 598.64425939 253.5 604.625 C252.82323364 606.82561834 252.14618114 609.02614872 251.46875 611.2265625 C251.18451172 612.15033691 250.90027344 613.07411133 250.60742188 614.02587891 C250.30674805 615.00306885 250.30674805 615.00306885 250 616 C253.39638777 615.41986731 256.79206142 614.83566197 260.1875 614.25 C261.22745117 614.07098145 262.26740234 613.89196289 263.33886719 613.70751953 C269.29654909 612.67301153 275.23449682 611.57339742 281.1640625 610.38891602 C291.74311649 608.28648884 302.25074791 606.86569575 313 606 C314.30582031 605.88785156 315.61164062 605.77570312 316.95703125 605.66015625 C369.41146751 601.69550193 426.90012529 605.43407753 476.9375 621.9375 C478.13914795 622.33211426 479.3407959 622.72672852 480.57885742 623.13330078 C494.61847448 627.95798526 510.7656651 634.07608434 518 648 C520.10490033 654.15541124 518.79144353 659.44593747 516.484375 665.33203125 C516.21631546 666.02918243 515.94825592 666.72633362 515.67207336 667.4446106 C512.59175267 675.28813424 508.92526539 682.8287718 505.1875 690.375 C504.44331007 691.88999409 503.69958672 693.40521745 502.95629883 694.9206543 C501.03139852 698.83894546 499.09605129 702.75197448 497.15722656 706.66339111 C496.01767689 708.96430778 494.88136927 711.26679609 493.74609375 713.56982422 C486.13523977 729.00212073 478.43384736 744.35043917 470.08203125 759.3984375 C467.73865589 763.62809491 465.45639414 767.88794657 463.19921875 772.1640625 C455.30684908 787.10869785 447.18649585 801.85330255 438.54589844 816.38427734 C437.0972271 818.83548782 435.67235159 821.29850503 434.2578125 823.76953125 C430.32666586 830.61859591 426.26501546 837.32961931 421.75 843.8125 C421.36166992 844.38178223 420.97333984 844.95106445 420.57324219 845.53759766 C417.2211529 850.21602252 413.46500707 853.17833098 408 855 C402.36448715 855.31048044 398.43942772 854.78841519 393.125 852.6875 C392.46137451 852.4289624 391.79774902 852.1704248 391.11401367 851.90405273 C385.58066631 849.71676614 380.12476249 847.34678025 374.65869141 844.99780273 C337.80625373 829.19045697 302.07658057 822.68312353 262 822 C260.87851563 821.97808594 259.75703125 821.95617187 258.6015625 821.93359375 C170.34432744 820.41888148 86.73708159 840.9508554 -12.07080078 880.05493164 C-22.61785357 884.32758172 -33.20023854 888.34874568 -44 891.9375 C-44.75336639 892.18879669 -45.50673279 892.44009338 -46.28292847 892.69900513 C-79.61652257 903.75180306 -114.08635698 911.2158425 -149 915 C-149.91249512 915.10441406 -150.82499023 915.20882812 -151.76513672 915.31640625 C-208.79964716 921.61701988 -267.71820679 915.89088602 -323 901 C-324.02270996 900.72575195 -325.04541992 900.45150391 -326.09912109 900.16894531 C-384.76267991 884.21916499 -439.02060254 858.49625783 -487 821 C-488.35544922 819.94619141 -488.35544922 819.94619141 -489.73828125 818.87109375 C-500.1589932 810.6442159 -510.19477755 801.94726549 -520 793 C-520.886875 792.2059375 -521.77375 791.411875 -522.6875 790.59375 C-528.89369254 784.994685 -534.89134968 779.21246897 -540.8125 773.3125 C-541.51769775 772.61189453 -542.22289551 771.91128906 -542.94946289 771.18945312 C-546.94478421 767.18235175 -550.76156081 763.07361667 -554.45678711 758.78833008 C-556.38840293 756.54990485 -558.38015703 754.36959834 -560.375 752.1875 C-565.10243697 746.93567506 -569.59810258 741.52595623 -574 736 C-574.51191895 735.360625 -575.02383789 734.72125 -575.55126953 734.0625 C-628.96009529 667.15714071 -662.85753544 587.74181754 -678.25 439.75 C-678.25067474 438.82302307 -678.25134949 437.89604614 -678.25204468 436.940979 C-678.15007211 347.55391919 -653.74457517 257.82118826 -596 167 C-595.60248535 166.42910645 -595.2049707 165.85821289 -594.79541016 165.27001953 C-591.9106234 161.14541295 -588.96917731 157.06416996 -586 153 C-585.53335937 152.3591748 -585.06671875 151.71834961 -584.5859375 151.05810547 C-575.00084292 137.93946833 -564.613395 125.70350185 -553.57421875 113.79296875 C-551.22447983 111.24355551 -548.92129068 108.65994356 -546.625 106.0625 C-539.21995596 97.81990161 -531.39485262 89.84086854 -522.9453125 82.6640625 C-520.64767068 80.69860986 -518.42126877 78.66270129 -516.1875 76.625 C-510.93157803 71.89941956 -505.54505572 67.38155733 -500 63 C-499.30068359 62.4445752 -498.60136719 61.88915039 -497.88085938 61.31689453 C-429.11901863 6.98353208 -346.23602914 -26.60499515 -259.81982422 -39.43017578 C-257.44689711 -39.78415839 -255.07568225 -40.15010054 -252.70751953 -40.53466797 C-169.63626361 -53.96503125 -75.17525312 -35.07091346 0 0 Z M-274.40234375 96.57470703 C-293.34695642 118.86208288 -299.60221678 143.97502336 -298 173 C-295.85426319 197.71909091 -284.48083704 221.59903815 -265.6796875 237.97265625 C-243.47548486 256.44374203 -216.7548226 264.86285396 -188 263 C-167.14666301 260.8774282 -147.42304184 252.12201838 -132 238 C-130.73929688 236.86111328 -130.73929688 236.86111328 -129.453125 235.69921875 C-112.53276869 219.64589934 -99.44215154 197.21092087 -98.796875 173.55078125 C-98.35779974 138.73239285 -106.05817155 113.52557037 -130.49609375 88.4375 C-149.91881372 70.06724269 -174.61699794 61.27900604 -201.09985352 61.52929688 C-229.58113725 62.38362178 -255.5187876 75.37015669 -274.40234375 96.57470703 Z M-511.9765625 233.28515625 C-531.89909937 257.05471026 -536.74281217 284.58792758 -535 315 C-534.34568087 320.90984396 -532.90155753 326.37826139 -531 332 C-530.79101074 332.63502441 -530.58202148 333.27004883 -530.36669922 333.92431641 C-521.93098545 359.01661555 -503.4210629 377.91826043 -480.25 390.125 C-456.9864099 401.42445805 -430.65407989 404.31427963 -405.90966797 396.2331543 C-379.59113124 386.96758726 -358.69604363 368.85401685 -346 344 C-334.39928638 318.95632107 -332.85467339 290.07910646 -342 264 C-351.59420972 239.42946291 -369.80163894 219.56989479 -393.625 208.125 C-395.40394325 207.385293 -397.19617083 206.67676131 -399 206 C-400.41732422 205.46632813 -400.41732422 205.46632813 -401.86328125 204.921875 C-441.57411302 191.39899963 -484.00693701 201.52005073 -511.9765625 233.28515625 Z M-36.30297852 233.59545898 C-56.94927402 257.52139403 -61.55614307 282.99162327 -60 314 C-59.36891138 319.91991911 -57.9199226 325.37779675 -56 331 C-55.79101074 331.63357422 -55.58202148 332.26714844 -55.36669922 332.91992188 C-46.55240455 359.14492443 -27.29421809 378.71547185 -2.94140625 391.140625 C20.72872278 402.67328027 48.59435854 403.3203255 73.3125 394.8671875 C76.28417077 393.69863988 79.13266171 392.40416978 82 391 C83.03253906 390.50886719 84.06507813 390.01773438 85.12890625 389.51171875 C107.251132 378.35743164 125.54799491 359.483839 134 336 C142.84075748 308.52625589 141.82040908 280.53856967 128.89379883 254.46411133 C124.7899326 246.52004242 120.12236482 239.56247092 114 233 C113.5369043 232.50129395 113.07380859 232.00258789 112.59667969 231.48876953 C98.82159829 216.79080314 81.74787843 205.74683399 62 201 C60.77603516 200.66548828 60.77603516 200.66548828 59.52734375 200.32421875 C24.56342735 192.17890067 -12.99024633 207.42334287 -36.30297852 233.59545898 Z M-229 395 C-229.76054688 395.58652344 -230.52109375 396.17304687 -231.3046875 396.77734375 C-240.464356 404.31787893 -245.60755811 413.74657717 -249 425 C-249.19207031 425.62261719 -249.38414062 426.24523437 -249.58203125 426.88671875 C-252.04876361 439.35870198 -249.42719972 452.58682378 -243.125 463.5 C-239.87283347 468.22723127 -236.06012841 472.34107291 -232.0625 476.4375 C-231.48967285 477.02917969 -230.9168457 477.62085938 -230.32666016 478.23046875 C-220.79863521 487.61588276 -211.72058546 488.19915574 -198.8125 488.25 C-197.52279297 488.270625 -196.23308594 488.29125 -194.90429688 488.3125 C-181.77798172 488.36615893 -174.065276 485.61723419 -164.52734375 476.54345703 C-155.12452188 467.04143659 -145.38639686 454.73519726 -144.828125 440.91796875 C-145.83599749 423.80704269 -152.95825631 409.02846082 -165.2109375 397.17578125 C-183.95235751 382.55537377 -209.71317545 379.66306018 -229 395 Z M-512.22607422 507.37573242 C-532.14992968 530.56060052 -536.44267874 558.49762265 -535 588 C-532.8416125 610.31446324 -522.61186722 630.1261887 -507 646 C-506.25234375 646.76054688 -505.5046875 647.52109375 -504.734375 648.3046875 C-485.02781079 667.1629559 -459.35299432 673.64064895 -432.72387695 673.40649414 C-424.17164484 673.2014061 -416.24987104 672.38649636 -408 670 C-406.48019531 669.58234375 -406.48019531 669.58234375 -404.9296875 669.15625 C-392.37853401 665.35485625 -381.24457444 659.11517844 -371 651 C-370.36707031 650.52046875 -369.73414063 650.0409375 -369.08203125 649.546875 C-350.84543896 635.0243713 -339.91775276 610.75755997 -336.9621582 588.05859375 C-334.71776651 568.17228588 -337.12021145 548.09612886 -346 530 C-346.45246094 529.06800781 -346.90492188 528.13601563 -347.37109375 527.17578125 C-350.83826179 520.43876367 -355.1182387 514.76844855 -360 509 C-360.44601562 508.40832031 -360.89203125 507.81664062 -361.3515625 507.20703125 C-376.55432645 487.574014 -401.60655853 478.00766733 -425.34887695 474.82202148 C-458.93677867 470.76613552 -489.65882531 482.30871416 -512.22607422 507.37573242 Z M-37.16796875 509.50390625 C-57.337772 533.14569071 -61.47123116 558.58496692 -60 589 C-57.49484867 614.55512616 -42.7786107 634.89507493 -24.00390625 651.5546875 C-2.13803773 669.35447124 24.87627183 678.10800238 53 675.4375 C71.73237147 672.62857439 89.9576677 664.82504034 104 652 C104.50241211 651.5452832 105.00482422 651.09056641 105.52246094 650.62207031 C125.77921972 632.06858254 138.90692231 606.71636512 140.22265625 579 C141.00473734 552.78658944 132.38865328 529.43414066 116 509 C115.45988281 508.29359375 114.91976562 507.5871875 114.36328125 506.859375 C102.02554653 491.56928563 83.59008671 482.16608725 65 477 C63.87851563 476.6803125 62.75703125 476.360625 61.6015625 476.03125 C23.7286751 466.83962789 -11.8957048 481.02271439 -37.16796875 509.50390625 Z M-239.0625 618.8125 C-239.76656982 619.1943042 -240.47063965 619.5761084 -241.19604492 619.96948242 C-267.1785499 634.55240202 -285.3808027 653.18466249 -294 682 C-295.31030037 686.94730232 -296.22895821 691.94196588 -297 697 C-297.13019531 697.76828125 -297.26039063 698.5365625 -297.39453125 699.328125 C-300.75182624 722.78442599 -296.37342721 747.30111625 -282.15625 766.48828125 C-280.15591425 769.0402969 -278.09739048 771.52724628 -276 774 C-275.32195312 774.81339844 -274.64390625 775.62679687 -273.9453125 776.46484375 C-260.40644853 792.16099924 -243.95281212 803.13828676 -224 809 C-222.96359375 809.31839844 -221.9271875 809.63679687 -220.859375 809.96484375 C-197.44060591 816.1023714 -173.24488104 811.7148598 -152 801 C-150.93007812 800.46503906 -149.86015625 799.93007813 -148.7578125 799.37890625 C-140.7081482 795.0195426 -134.49562156 789.33854394 -128 783 C-127.26910156 782.34257813 -126.53820313 781.68515625 -125.78515625 781.0078125 C-109.46959043 765.95226068 -100.04029095 741.44574992 -98.87451172 719.65429688 C-97.75729135 690.39322877 -105.32562679 664.20016975 -125.08984375 642.0703125 C-142.76037651 623.02771484 -167.34601478 612.90384724 -193.1574707 611.87402344 C-196.8555553 611.79355833 -200.55109296 611.765113 -204.25 611.75 C-205.49652344 611.729375 -206.74304687 611.70875 -208.02734375 611.6875 C-219.23256685 611.64066521 -229.19398419 613.38163049 -239.0625 618.8125 Z M345 660 C338.99195531 671.82151768 333.30562056 683.77245154 327.75 695.8125 C327.33746979 696.70508514 326.92493958 697.59767029 326.49990845 698.51730347 C308.91502554 730.23689595 308.91502554 730.23689595 300 764 C309.21963778 767.07741937 318.37862256 769.16587223 327.9375 770.875 C345.82055893 774.18910571 363.11228972 778.67260192 380.21533203 784.90405273 C383.44179214 786.04199868 386.35322309 786.94617794 389.76953125 787.23046875 C393.67607879 785.07536809 395.13758058 781.24792888 397.125 777.375 C397.62797607 776.42278564 398.13095215 775.47057129 398.64916992 774.48950195 C412.41352088 748.11037258 425.07053473 721.12563963 437.13891602 693.93389893 C438.07827754 691.82419735 439.02664112 689.71864003 439.97460938 687.61279297 C440.62404249 686.15738027 441.27313921 684.70181741 441.921875 683.24609375 C442.22973938 682.56619888 442.53760376 681.88630402 442.85479736 681.18580627 C444.1423884 678.27806345 445 676.21771379 445 673 C412.70172175 662.96019128 378.72486831 659.17341009 345 660 Z M238.19238281 683.86425781 C236.37468875 684.7501517 234.54757621 685.61392706 232.71875 686.4765625 C210.34296337 697.20225921 194.34992258 713.82526173 179 733 C178.58524414 733.5151416 178.17048828 734.0302832 177.74316406 734.56103516 C171.95714867 741.75981352 166.38039753 749.10082905 160.9375 756.5625 C160.09687012 757.70537476 160.09687012 757.70537476 159.23925781 758.87133789 C158.71557617 759.59571045 158.19189453 760.32008301 157.65234375 761.06640625 C157.18820068 761.70521729 156.72405762 762.34402832 156.24584961 763.00219727 C154.8451123 765.24837273 153.91720641 767.52163688 153 770 C162.57908373 769.25852532 172.13280514 768.30103367 181.69049072 767.32901001 C194.89428388 765.98693122 208.09546725 764.65688076 221.32543945 763.59594727 C222.13843506 763.52947998 222.95143066 763.4630127 223.7890625 763.39453125 C224.46662598 763.34143799 225.14418945 763.28834473 225.84228516 763.23364258 C226.55433105 763.15654053 227.26637695 763.07943848 228 763 C229.00417969 762.95617187 230.00835938 762.91234375 231.04296875 762.8671875 C234.22500203 762.26506765 234.22500203 762.26506765 235.89599609 759.33666992 C236.43305176 758.14662354 236.97010742 756.95657715 237.5234375 755.73046875 C237.8268808 755.07460785 238.1303241 754.41874695 238.44296265 753.74301147 C239.44267732 751.56727753 240.40878024 749.37829006 241.375 747.1875 C242.06620189 745.66379979 242.75926603 744.14094312 243.45410156 742.61889648 C245.28769076 738.58621154 247.09183613 734.54099291 248.88977051 730.49230957 C250.36548442 727.17953872 251.85902071 723.87494596 253.35281372 720.57029724 C255.15936159 716.57105071 256.9562972 712.56752183 258.75 708.5625 C259.0877948 707.80858978 259.4255896 707.05467957 259.77362061 706.27792358 C267.6236332 690.74010103 267.6236332 690.74010103 270 674 C261.38389999 670.57067985 245.99747989 680.04777947 238.19238281 683.86425781 Z " fill="#000000" transform="translate(1656,168)"/>
<path d="M0 0 C0.82457111 -0.00199105 1.64914221 -0.0039821 2.49870032 -0.00603348 C3.85715181 -0.00166422 3.85715181 -0.00166422 5.24304676 0.00279331 C6.68634388 0.00151167 6.68634388 0.00151167 8.15879852 0.00020415 C11.39708976 -0.00144872 14.63532971 0.0040676 17.87361622 0.00952244 C20.18930021 0.00980438 22.50498428 0.00964644 24.82066822 0.00907993 C31.11988424 0.00879222 37.41908134 0.01468473 43.71829295 0.02165389 C50.29666248 0.02789178 56.8750324 0.02849157 63.45340443 0.0296793 C74.49891457 0.03227083 85.54441806 0.03868987 96.58992481 0.04760838 C107.96752862 0.05678548 119.34513055 0.06386486 130.72273731 0.06811619 C131.4238931 0.06837891 132.12504889 0.06864164 132.84745183 0.06891232 C136.36489666 0.07021734 139.8823415 0.07148106 143.39978635 0.07272422 C172.58678691 0.08309323 201.77378057 0.10078267 230.96077442 0.12304783 C231.90810356 3.41647353 232.85303318 6.71058331 233.79758167 10.00480747 C234.06187552 10.92352619 234.32616937 11.8422449 234.59847212 12.78880358 C236.81032183 20.50981241 238.88107434 28.26260975 240.86508656 36.04512119 C241.08293875 36.89808592 241.30079094 37.75105064 241.52524471 38.62986279 C241.75018045 39.51062166 241.9751162 40.39138054 242.20686817 41.29882908 C242.69489262 43.20024591 243.18321862 45.10158536 243.67181873 47.00285435 C244.70933354 51.04173776 245.74532689 55.08100674 246.78004932 59.12060642 C249.5736941 70.02568588 252.37854676 80.92788604 255.18343067 91.83007908 C255.46911915 92.94081413 255.75480762 94.05154919 256.04915333 95.19594288 C261.52231708 116.47110596 267.06907304 137.72653401 272.64159107 158.97585392 C281.78878462 193.85769753 290.80482646 228.77211047 299.76847935 263.70155048 C309.05088575 299.8727119 318.4099195 336.02176786 327.96077442 372.12304783 C335.20597467 345.21409003 342.36996204 318.28473012 349.46373463 291.33548069 C351.56142041 283.36797666 353.66161819 275.40113402 355.76134205 267.43416691 C356.30074304 265.38746853 356.84011069 263.34076137 357.37944508 261.29404545 C363.06083915 239.73376923 368.75913516 218.17797747 374.46077442 196.62304783 C380.37421478 174.26720947 386.28314986 151.91020568 392.17561817 129.54882908 C392.43413122 128.56781034 392.69264427 127.58679161 392.95899105 126.57604504 C393.48016975 124.59823845 394.00134673 122.6204314 394.52252197 120.6426239 C410.82088202 58.79217281 410.82088202 58.79217281 418.87860966 28.51440144 C419.39382435 26.57727935 419.9081231 24.63991372 420.42241383 22.70254612 C421.34833791 19.21581339 422.27709446 15.72984942 423.20686817 12.24414158 C423.475396 11.23131107 423.74392384 10.21848057 424.02058887 9.17495823 C424.26438282 8.26378239 424.50817677 7.35260654 424.75935841 6.41381931 C425.07380154 5.23335278 425.07380154 5.23335278 425.39459705 4.02903843 C425.96077442 2.12304783 425.96077442 2.12304783 426.96077442 0.12304783 C456.34596627 0.05455667 485.73115244 0.00149127 515.11640783 -0.03014816 C518.58845594 -0.03390012 522.06050389 -0.0377831 525.53255177 -0.04174709 C526.22375129 -0.04253402 526.91495081 -0.04332096 527.62709577 -0.04413173 C538.80745554 -0.05717278 549.98776887 -0.08081942 561.16810112 -0.10841056 C572.64681501 -0.13650103 584.12549628 -0.15291168 595.60424387 -0.15921766 C602.04888216 -0.16312627 608.49341521 -0.17230345 614.93801975 -0.19414234 C621.00690651 -0.21454095 627.07564493 -0.22077907 633.14456272 -0.21627522 C635.36892472 -0.2170989 637.5932918 -0.22304429 639.81762409 -0.2345686 C642.86213385 -0.24956533 645.9060886 -0.24587946 648.95061207 -0.23771572 C649.82418366 -0.24645425 650.69775525 -0.25519277 651.59779871 -0.2641961 C658.8332932 -0.21200332 666.4277226 0.92794409 672.39827442 5.31054783 C678.46840097 11.97288185 679.11413988 20.55168331 679.16389942 29.24804783 C679.16959949 30.031395 679.17529957 30.81474216 679.18117237 31.62182713 C679.19059629 33.27928423 679.19714596 34.93675984 679.2010088 36.59423923 C679.21063624 39.08726473 679.24165082 41.57943699 679.27327442 44.07226658 C679.35882484 56.84455296 679.11816395 70.22051739 669.96077442 80.12304783 C663.65427811 85.70809091 655.88744772 89.49784272 648.46956348 93.39624119 C639.81703074 98.03098752 633.97472328 102.59361665 630.96077442 112.12304783 C629.15647566 120.83278681 628.67240657 129.38560769 628.70629883 138.25603485 C628.70309235 139.51792538 628.69988587 140.7798159 628.69658223 142.07994553 C628.68802787 145.5585468 628.69176106 149.03703904 628.69763795 152.51564177 C628.70183081 156.30927966 628.69439361 160.10289848 628.68848544 163.89653164 C628.67974257 170.53752452 628.67840451 177.17848656 628.68198872 183.81948376 C628.68730455 193.69506385 628.6811916 203.57061418 628.67290578 213.44619104 C628.65767589 232.11081356 628.65595963 250.77542251 628.65842881 269.44004994 C628.66026224 283.85276154 628.65850081 298.2654687 628.65420437 312.67817974 C628.65360197 314.74963347 628.65300077 316.82108719 628.65240077 318.89254092 C628.6514935 322.01409534 628.65058484 325.13564976 628.64966841 328.25720418 C628.64124053 357.27433425 628.63690211 386.29146264 628.64107513 415.30859375 C628.64123151 416.40218194 628.64138789 417.49577012 628.641549 418.62249735 C628.64235477 424.16510814 628.64320054 429.70771894 628.6440623 435.25032973 C628.64423339 436.35109084 628.64440448 437.45185195 628.64458075 438.58596946 C628.64492741 440.81197403 628.64527594 443.03797861 628.64562634 445.26398318 C628.65098445 479.9065493 628.64304988 514.54908997 628.62459278 549.19165134 C628.60387573 588.12147204 628.59314941 627.05127697 628.59716827 665.98110348 C628.59756361 670.13210237 628.59792516 674.28310126 628.59826565 678.43410015 C628.59835638 679.45616623 628.59844711 680.47823231 628.59854059 681.53127009 C628.59970636 696.9575189 628.5930599 712.38375178 628.58245373 727.8099966 C628.57040431 745.35318106 628.5688399 762.89633043 628.58124389 780.4395154 C628.58787328 790.25473617 628.58623955 800.06987305 628.57265538 809.88508711 C628.5644092 816.44504853 628.56711063 823.00494714 628.57863065 829.56490346 C628.5848853 833.29998739 628.58649252 837.03490769 628.57476731 840.76998215 C628.56222824 844.80152474 628.57308586 848.83267845 628.58604431 852.86421967 C628.57508029 854.58670831 628.57508029 854.58670831 628.56389478 856.34399471 C628.62770894 865.93497727 628.93054817 878.91706592 635.96077442 886.12304783 C641.15383709 889.93068212 646.76748066 893.02339107 652.37947559 896.15869236 C662.34665182 901.74753961 671.00627984 907.40475455 674.27327442 918.99804783 C675.63278004 926.59075846 675.15136151 934.44567405 674.96077442 942.12304783 C674.9361211 943.20731052 674.91146778 944.29157322 674.88606739 945.40869236 C674.79935769 948.95982612 674.69571089 952.51006098 674.58577442 956.06054783 C674.55507862 957.18509373 674.52438282 958.30963963 674.49275684 959.46826267 C673.85085738 977.4706854 673.85085738 977.4706854 670.76399708 981.80249119 C664.95993667 986.0529871 658.03298406 985.40694179 651.18744373 985.38374424 C649.99344772 985.38756979 648.79945171 985.39139533 647.56927401 985.39533681 C644.26314726 985.40386203 640.95724324 985.40343627 637.65112293 985.39915621 C634.08258037 985.3966882 630.51406389 985.40570397 626.94553089 985.4131937 C619.95823901 985.42593962 612.97098555 985.42773461 605.983684 985.42539344 C600.30547084 985.42361038 594.62726934 985.42535966 588.94905758 985.42961788 C588.14090865 985.43021307 587.33275972 985.43080826 586.50012143 985.43142148 C584.85839529 985.43263323 583.21666915 985.43384736 581.57494301 985.43506386 C566.18160573 985.44593851 550.78829035 985.44377697 535.39495183 985.43767902 C521.30812237 985.43250717 507.221362 985.44377248 493.13454621 985.46277723 C478.67129685 985.4821404 464.20808021 985.49041449 449.74481779 985.48665398 C441.62426959 985.48473998 433.50378024 985.48724911 425.38324261 985.50136852 C418.47200482 985.51326375 411.56086214 985.514708 404.64962309 985.50257836 C401.12291107 985.49667719 397.59637315 985.49562427 394.06967258 985.50758076 C390.24873528 985.52038448 386.42806369 985.51000488 382.60712147 985.49726963 C381.48962149 985.50464392 380.37212151 985.5120182 379.2207579 985.51961595 C369.81706737 985.45339779 369.81706737 985.45339779 365.96077442 982.12304783 C358.88793044 973.23147253 358.77670125 962.18510358 358.83577442 951.31054783 C358.83915821 950.40200047 358.842542 949.4934531 358.84602833 948.557374 C358.91433326 939.39260012 359.22578227 930.25925062 359.96077442 921.12304783 C360.07485645 919.59357517 360.07485645 919.59357517 360.19124317 918.03320408 C361.10913565 911.02482502 364.45899094 906.46945678 369.96077442 902.12304783 C374.48261303 899.40175473 379.28956626 897.23329201 384.07210255 895.01660252 C392.64416307 890.96105165 399.74566497 886.33960952 403.77327442 877.49804783 C405.78359903 871.78449369 406.10352571 866.5849047 406.08382225 860.55856705 C406.08555302 859.26083991 406.08555302 859.26083991 406.08731875 857.93689606 C406.08997573 855.02396714 406.08547076 852.11109297 406.08102894 849.19816685 C406.08146483 847.09432805 406.08234006 844.99048931 406.0836181 842.88665086 C406.08585959 837.09453964 406.08184648 831.30244682 406.07684004 825.51033795 C406.07253079 819.26837706 406.07398231 813.02641725 406.07474232 806.7844553 C406.07526725 795.96619138 406.07215848 785.14793488 406.06650448 774.32967281 C406.06058922 762.98245496 406.05673889 751.63523951 406.05565166 740.28802013 C406.05558293 739.58271332 406.05551419 738.87740651 406.05544336 738.15072676 C406.05510503 734.5688887 406.05480365 730.98705063 406.05451649 727.40521256 C406.05241559 702.02933635 406.04567688 676.65346328 406.03621387 651.27758884 C406.02703081 626.62394318 406.01994652 601.97029838 406.01570606 577.31665134 C406.01557454 576.55683452 406.01544301 575.79701769 406.0153075 575.01417611 C406.01398899 567.38384365 406.01271317 559.75351119 406.01146864 552.12317872 C406.00893237 536.5790524 406.00611111 521.03492614 406.00311756 505.4907999 C406.00298027 504.77609249 406.00284298 504.06138508 406.00270153 503.32501987 C405.99349952 455.59102785 405.97763338 407.85703769 405.96077442 360.12304783 C403.21500879 370.48148522 400.46927941 380.83993222 397.72359277 391.19839055 C396.4478191 396.0114076 395.17203424 400.82442168 393.89622116 405.63742828 C386.44251572 433.75658775 378.99260641 461.87674589 371.55043125 489.99895954 C370.16496515 495.23412362 368.77928855 500.46923199 367.39363575 505.70434666 C363.91584267 518.84386803 360.43829055 531.98345316 356.96077442 545.12304783 C352.35679217 562.51892997 347.75269427 579.9147815 343.14827442 597.31054783 C342.86854156 598.3674041 342.58880871 599.42426037 342.3005991 600.51314259 C333.48813986 633.80722429 324.66939953 667.0996368 315.84280014 700.38997269 C315.41634589 701.99840714 314.98991149 703.60684684 314.56349754 705.21529198 C313.54501076 709.05699247 312.52624413 712.89861821 311.50681019 716.74006748 C309.67486634 723.6448944 307.84666544 730.55065884 306.03008556 737.45954609 C305.1904665 740.65253665 304.3493656 743.84513616 303.50823307 747.03772831 C303.11015074 748.55063232 302.71286664 750.06374662 302.31642246 751.57708073 C301.77289115 753.65183788 301.22673426 755.72588728 300.6800127 757.79980564 C300.21656956 759.5650861 300.21656956 759.5650861 299.74376392 761.36602879 C298.96077442 764.12304783 298.96077442 764.12304783 297.96077442 766.12304783 C275.52077442 766.12304783 253.08077442 766.12304783 229.96077442 766.12304783 C225.80881868 751.88777099 221.69226222 737.68993533 217.90608692 723.36132908 C217.44738068 721.63472183 216.98838122 719.90819246 216.52911854 718.18173313 C215.55364577 714.51294779 214.57979191 710.84373854 213.60728931 707.17416477 C211.22765442 698.19608122 208.83823704 689.22059808 206.44959927 680.24490643 C205.89544292 678.16244738 205.34138545 676.07996201 204.78742504 673.99745083 C198.99434908 652.21976635 193.15449669 630.45478025 187.29908466 608.69378376 C186.5194077 605.79617746 185.73986033 602.89853633 184.96034718 600.00088596 C182.86514745 592.2126571 180.76970735 584.42449297 178.67366505 576.63649082 C174.57069309 561.39157986 170.47111636 546.14575824 166.37321675 530.89948308 C162.79922708 517.60243447 159.22495746 504.30546114 155.65047169 491.00854588 C155.11188181 489.00500594 154.57329235 487.0014659 154.03470325 484.99792576 C152.91129739 480.81888063 151.78788985 476.63983595 150.66448116 472.46079159 C148.14393066 463.08441831 145.62340295 453.7080389 143.10287368 444.33165991 C141.72705768 439.2136197 140.3512402 434.09557987 138.97542286 428.97754002 C138.4291582 426.94543553 137.88289356 424.91333103 137.33662891 422.88122654 C137.06496906 421.87065189 136.79330921 420.86007725 136.51341724 419.81887913 C132.32920297 404.25360203 128.1449887 388.68832493 123.96077442 373.12304783 C123.90941589 420.26900594 123.86165448 467.41496624 123.833745 514.56094456 C123.83333083 515.25879381 123.83291666 515.95664306 123.83248994 516.67563925 C123.82351108 531.84202602 123.81520055 547.00841309 123.80757843 562.1748006 C123.80383645 569.6124651 123.79994678 577.05012953 123.7959795 584.48779392 C123.79539108 585.5979955 123.79539108 585.5979955 123.79479078 586.73062539 C123.78200826 610.71763642 123.75947547 634.70462625 123.73188276 658.69162443 C123.70357762 683.34274945 123.68511638 707.99386273 123.67902945 732.64500372 C123.678165 736.12733585 123.67718809 739.60966793 123.67614269 743.09200001 C123.67594042 743.77736842 123.67573815 744.46273682 123.67552976 745.16887397 C123.67198552 756.19845634 123.65807382 767.2280024 123.64027832 778.25756996 C123.62260644 789.34780077 123.61611579 800.43800401 123.62027029 811.5282505 C123.62219412 817.53647171 123.61921904 823.5445864 123.603158 829.55278873 C123.58855938 835.05405916 123.58782197 840.55515144 123.59807774 846.05643006 C123.5993453 848.04583124 123.59553955 850.03524353 123.58612487 852.02462284 C123.52140112 866.54641453 124.10857679 878.52735853 134.44905567 889.73632908 C138.09880508 893.09627208 142.22808739 895.55822373 146.46077442 898.12304783 C159.19656561 905.86069671 166.21395775 914.47061548 170.24983692 929.13086033 C173.91345544 944.55026575 173.20843525 963.09556767 164.87093067 976.93164158 C161.78334104 981.10040737 157.82024652 983.54943316 152.96077442 985.12304783 C148.16442791 985.69601581 143.38472389 985.66076364 138.56184864 985.62475681 C137.11228887 985.62854498 135.66273274 985.63404911 134.21318531 985.64112949 C130.29587029 985.65503427 126.37899691 985.64395085 122.46170664 985.62741828 C118.35389971 985.6135198 114.24611716 985.62003311 110.13829517 985.62355137 C103.24360035 985.6262491 96.34908006 985.61281351 89.45442677 985.58960056 C81.49040989 985.56297241 73.52668433 985.56125203 65.56263816 985.57298893 C57.88887654 985.58377684 50.21522 985.57757306 42.54146671 985.56343365 C39.28082887 985.55768475 36.02026819 985.55774782 32.75962925 985.56249905 C28.919789 985.56727996 25.08026687 985.55712136 21.2404871 985.5355444 C19.83363639 985.52999226 18.42675501 985.52949677 17.01990223 985.53449726 C15.09563475 985.54047794 13.17133644 985.52607324 11.24712086 985.51072788 C10.17163927 985.50829799 9.09615768 985.50586809 7.98808575 985.50336456 C3.07095414 984.88563245 -0.1510174 982.99010819 -3.66422558 979.56054783 C-12.83233218 967.70115832 -11.96817956 951.2876976 -11.03922558 937.12304783 C-8.98278831 922.20969787 0.04901989 911.77708594 11.39827442 902.81054783 C20.11221955 895.77697779 26.2234448 888.65022722 27.75922617 877.32127161 C28.19958337 872.51843322 28.09960653 867.69167829 28.09220219 862.87283993 C28.09528114 861.01379499 28.09528114 861.01379499 28.09842229 859.11719358 C28.10310581 855.67376951 28.10331873 852.23039762 28.1016447 848.78697423 C28.10091275 845.0417804 28.10593857 841.29659354 28.11021972 837.55140269 C28.11779619 830.12153814 28.1199926 822.69168077 28.12054877 815.26181276 C28.12146279 806.36250361 28.12813154 797.4632011 28.1348956 788.56389481 C28.15095575 767.05192696 28.1568593 745.53995982 28.16164435 724.02798705 C28.1639807 713.84823196 28.16758345 703.66847742 28.17133972 693.48872276 C28.18417647 658.63321146 28.19489458 623.77770047 28.19834232 588.92218685 C28.19856396 586.73407534 28.19878574 584.54596383 28.19900768 582.35785232 C28.19922831 580.1644831 28.1994488 577.97111387 28.19966912 575.77774465 C28.20011167 571.37754623 28.20055879 566.97734781 28.2010088 562.57714939 C28.20111819 561.48615584 28.20122758 560.39516229 28.20134028 559.27110833 C28.20496916 523.91283928 28.22088219 488.55459074 28.24419916 453.19632955 C28.2688132 415.80267524 28.28251594 378.40903266 28.28371024 341.01537001 C28.28388169 336.90768377 28.28409712 332.79999753 28.28434467 328.69231129 C28.28440044 327.68090337 28.28445621 326.66949545 28.28451367 325.62743881 C28.28566288 309.37196953 28.29667402 293.11652134 28.31123173 276.86105918 C28.32562149 260.50987447 28.32881977 244.15871671 28.32079175 227.80752741 C28.31634684 218.10267401 28.32015031 208.39790783 28.33603026 198.69306595 C28.34582286 192.19752901 28.34456141 185.70205277 28.33459403 179.2065163 C28.3292326 175.5138605 28.32839166 171.82137145 28.34110275 168.12872986 C29.25954963 130.57702874 29.25954963 130.57702874 12.96077442 98.12304783 C8.01242449 94.16186871 2.75125929 90.85710479 -2.62906933 87.51367283 C-8.66660518 83.67441926 -14.70327479 79.13090019 -17.03922558 72.12304783 C-17.10777546 70.7187639 -17.1190376 69.31122774 -17.09269238 67.90551853 C-17.07905148 67.05645435 -17.06541058 66.20739017 -17.05135632 65.33259678 C-17.03059536 64.41395344 -17.0098344 63.4953101 -16.98844433 62.54882908 C-16.96957668 61.59219868 -16.95070904 60.63556828 -16.93126965 59.64994907 C-16.88934234 57.61642832 -16.84460049 55.58296396 -16.79728222 53.5495615 C-16.72802246 50.49278546 -16.67306713 47.43598978 -16.6193037 44.3789072 C-16.01083258 14.30300502 -16.01083258 14.30300502 -11.03922558 4.12304783 C-7.67975823 0.97354719 -4.54575031 -0.00242182 0 0 Z " fill="#0A42CF" transform="translate(200.0392255783081,124.87695217132568)"/>
<path d="M0 0 C1.93203781 -0.00855011 1.93203781 -0.00855011 3.90310669 -0.01727295 C6.62437319 -0.02770208 9.34561095 -0.03359373 12.06689453 -0.03710938 C14.78708702 -0.0414414 17.50695287 -0.05514059 20.22705078 -0.078125 C92.31180786 -0.67430757 167.69939607 14.01131876 221.0078125 65.578125 C243.45876436 88.55578541 259.40588735 117.6043502 267.1328125 148.703125 C267.32786377 149.47188965 267.52291504 150.2406543 267.72387695 151.03271484 C271.59893708 167.76025713 271.59841351 184.89829534 271.51130676 201.96395874 C271.50699171 204.31397691 271.50360753 206.66399694 271.50106448 209.0140177 C271.49364984 214.09014738 271.47989236 219.1662054 271.46114159 224.24230576 C271.43333024 231.79075637 271.41692721 239.33919125 271.40376719 246.88767994 C271.38694763 256.50388544 271.367978 266.12008295 271.34328139 275.73627162 C271.28884849 296.98109539 271.25760072 318.22583978 271.24413797 339.47072856 C271.2425954 341.88716456 271.2409774 344.3036005 271.23933396 346.72003643 C271.23434441 354.06095733 271.22951444 361.40187831 271.22484907 368.74279942 C271.21362547 386.36124984 271.20069631 403.97969809 271.18432617 421.59814453 C271.18355537 422.44014047 271.18278458 423.28213642 271.18199042 424.14964739 C271.15669936 451.4809404 271.09424244 478.8120115 271.01479613 506.14319548 C270.93325125 534.27853091 270.89479618 562.41362622 270.90833775 590.54908332 C270.91021762 594.52277974 270.91157683 598.49647616 270.91260338 602.47017288 C270.91292385 603.64312708 270.91292385 603.64312708 270.9132508 604.83977733 C270.91536404 617.41054071 270.8716895 629.98074584 270.81037581 642.55134268 C270.74966201 655.18200823 270.73589574 667.81202748 270.76999078 680.44279926 C270.78712803 687.2824429 270.78344372 694.12051004 270.72018242 700.95992661 C270.66427478 707.22390861 270.66850812 713.48489512 270.72013362 719.74888726 C270.72823089 722.01169097 270.71442693 724.27470405 270.67623387 726.5371999 C270.26054161 740.47779782 270.26054161 740.47779782 276.86200143 752.21102253 C279.54097864 754.74995402 282.36987053 756.99237715 285.3203125 759.203125 C286.8296587 760.50486626 288.33249166 761.81433492 289.8203125 763.140625 C290.73876953 763.93146484 290.73876953 763.93146484 291.67578125 764.73828125 C297.66098093 770.06951612 300.77164318 775.94298517 301.60766602 783.95800781 C301.72268829 786.94201421 301.73612436 789.90471547 301.6953125 792.890625 C301.68661133 793.94701172 301.67791016 795.00339844 301.66894531 796.09179688 C301.44791401 807.91153651 300.50113041 821.4583658 291.5703125 830.203125 C270.03009385 847.03284997 238.21402945 852.28622101 211.64453125 852.40625 C210.63928909 852.41195007 209.63404694 852.41765015 208.5983429 852.42352295 C206.47629836 852.43292393 204.35423956 852.43948729 202.23217773 852.44335938 C199.0549009 852.45298238 195.87829514 852.4840192 192.70117188 852.515625 C175.99527723 852.60324475 159.63550353 851.33005799 143.5703125 846.453125 C142.70599609 846.19635986 141.84167969 845.93959473 140.95117188 845.67504883 C112.58805816 836.9751085 92.99943426 820.43185201 78.97485352 794.29272461 C68.3203125 774.12374407 68.3203125 774.12374407 68.3203125 768.203125 C65.7012514 770.81739805 63.08750535 773.43631318 60.48828125 776.0703125 C55.50466878 781.10696858 50.51173271 786.03187439 45.11328125 790.62890625 C43.26601621 792.2507969 41.54274536 793.94972705 39.8203125 795.703125 C36.15027255 799.414034 32.31383751 802.84339517 28.3203125 806.203125 C27.7722998 806.66493164 27.22428711 807.12673828 26.65966797 807.60253906 C-2.44105433 832.00860179 -36.88398535 852.18093294 -76.04296875 852.40625 C-76.8338237 852.41195007 -77.62467865 852.41765015 -78.4394989 852.42352295 C-80.11110112 852.43292753 -81.78272151 852.43948875 -83.4543457 852.44335938 C-85.94713194 852.45295163 -88.43905129 852.48396993 -90.93164062 852.515625 C-105.53958169 852.6129274 -119.75689371 850.88679404 -133.7421875 846.515625 C-134.56525391 846.26216309 -135.38832031 846.00870117 -136.23632812 845.74755859 C-173.12589865 833.93070347 -200.68100579 806.21203897 -218.18359375 772.42578125 C-228.78227536 751.36808745 -234.95583407 729.22004606 -239.6796875 706.203125 C-239.87014648 705.29933105 -240.06060547 704.39553711 -240.25683594 703.46435547 C-243.02517977 690.09070166 -244.49593218 676.58938462 -245.8671875 663.015625 C-245.99447235 661.76625153 -245.99447235 661.76625153 -246.12432861 660.49163818 C-248.38848476 637.99148253 -248.88470532 615.62454984 -248.8671875 593.015625 C-248.86706791 592.33130276 -248.86694832 591.64698051 -248.8668251 590.94192123 C-248.86219144 569.96810212 -248.62977516 549.10337003 -246.6796875 528.203125 C-246.57785156 527.0569873 -246.47601562 525.91084961 -246.37109375 524.72998047 C-242.20882542 479.10561021 -233.94704159 427.80352648 -202.6796875 392.203125 C-202.17614746 391.62804199 -201.67260742 391.05295898 -201.15380859 390.46044922 C-195.38448962 383.93081836 -189.46238034 377.69387634 -182.6796875 372.203125 C-181.58071632 371.29168215 -180.48175934 370.38022219 -179.3828125 369.46875 C-170.84350983 362.4500365 -162.03958628 356.07919595 -152.6796875 350.203125 C-151.94153809 349.73938477 -151.20338867 349.27564453 -150.44287109 348.79785156 C-137.21910024 340.55467648 -123.60149428 333.19278331 -109.6796875 326.203125 C-108.64489258 325.68105469 -107.61009766 325.15898438 -106.54394531 324.62109375 C-88.2993092 315.46815455 -69.65586463 307.66798522 -50.6796875 300.203125 C-49.56439667 299.76419922 -49.56439667 299.76419922 -48.42657471 299.31640625 C-45.31859734 298.09349785 -42.21035868 296.8712545 -39.1020813 295.64910889 C-36.71120488 294.70898034 -34.32042812 293.76859883 -31.9296875 292.828125 C-31.13606812 292.51605103 -30.34244873 292.20397705 -29.52478027 291.88244629 C-0.70717063 280.54147326 27.91683074 268.67824058 55.94970703 255.50048828 C57.71290283 254.67460205 57.71290283 254.67460205 59.51171875 253.83203125 C60.57720947 253.32873291 61.6427002 252.82543457 62.74047852 252.30688477 C65.3203125 251.203125 65.3203125 251.203125 67.3203125 251.203125 C67.28299142 234.65979527 67.22290613 218.11672422 67.13640976 201.57358551 C67.09675864 193.890688 67.06429598 186.20789085 67.04931641 178.52490234 C67.03622707 171.82108317 67.00907938 165.11748612 66.96569943 158.41379213 C66.94324644 154.87082313 66.92739195 151.3281264 66.92842865 147.78507996 C67.54076193 119.77496305 67.54076193 119.77496305 55.609375 95.25 C46.8201265 86.71187289 36.92931088 85.61539527 25.17016602 85.73022461 C12.22657783 86.15693631 2.40367591 90.10813788 -7.3671875 98.515625 C-22.34192543 115.9186988 -24.55016301 138.10142431 -25.06729126 160.17822266 C-26.32949411 211.40127069 -26.32949411 211.40127069 -41.6796875 227.890625 C-51.82943747 237.2609284 -63.90288669 243.28069437 -76.6796875 248.203125 C-77.35950684 248.46722168 -78.03932617 248.73131836 -78.73974609 249.00341797 C-110.7360036 261.16846579 -154.89914567 268.15771124 -187.54296875 254.69921875 C-204.11567416 246.89284057 -215.24595352 234.90085531 -221.78320312 217.93774414 C-233.8953061 184.1305742 -228.4119697 142.97732371 -213.61132812 110.88671875 C-209.15528225 101.69070196 -204.04676553 93.21771544 -197.6796875 85.203125 C-197.01710938 84.33816406 -196.35453125 83.47320312 -195.671875 82.58203125 C-185.60737365 69.78785887 -173.86676689 58.70961631 -160.6796875 49.203125 C-159.690896 48.48842041 -159.690896 48.48842041 -158.68212891 47.75927734 C-113.04375836 15.19110085 -55.65879011 0.19709832 0 0 Z M2.3203125 373.203125 C-23.79481486 400.47342387 -23.59325472 443.71045571 -25.6796875 479.203125 C-25.7322168 480.05293945 -25.78474609 480.90275391 -25.83886719 481.77832031 C-26.2108361 487.91705555 -26.46364466 494.05707873 -26.6796875 500.203125 C-26.72480469 501.45222656 -26.76992187 502.70132813 -26.81640625 503.98828125 C-37.18581057 611.25004879 -37.18581057 611.25004879 -7.71484375 709.4296875 C1.38163962 718.21363346 11.0160554 720.92685283 23.37792969 720.72485352 C34.1333069 720.24997152 42.59663287 716.82440737 50.3203125 709.203125 C65.29477867 691.7832319 67.49215239 667.60322493 67.44056702 645.58639526 C67.44100384 644.22895479 67.44188079 642.87151439 67.44315618 641.51407444 C67.44537934 637.80834237 67.44140988 634.1026395 67.43637812 630.39691114 C67.43204234 626.39159621 67.43352226 622.38628281 67.4342804 618.38096619 C67.43480365 611.4495594 67.43167758 604.51816207 67.42604256 597.58675766 C67.41790068 587.56522472 67.41530958 577.54369632 67.41405457 567.52216043 C67.41186827 551.2611903 67.40521963 535.00022521 67.39575195 518.73925781 C67.38656691 502.94726588 67.37949142 487.15527532 67.37524414 471.36328125 C67.37485006 469.90210077 67.37485006 469.90210077 67.37444801 468.4114015 C67.37314293 463.52431655 67.37187923 458.63723159 67.37063611 453.75014663 C67.36027664 413.23446925 67.34266981 372.71879742 67.3203125 332.203125 C46.41174699 332.203125 16.37187926 359.22951423 2.3203125 373.203125 Z " fill="#0A42CF" transform="translate(3754.6796875,266.796875)"/>
<path d="M0 0 C1.71228539 -0.00345847 3.42456856 -0.00822431 5.13684708 -0.01418173 C9.83311068 -0.02669543 14.52919118 -0.02051962 19.2254554 -0.01122308 C24.29371318 -0.00443442 29.36193951 -0.01491295 34.43019104 -0.02316284 C44.35564323 -0.03650458 54.28102737 -0.03362037 64.20648222 -0.02492492 C72.27353556 -0.01815015 80.34056983 -0.01723076 88.4076252 -0.02049637 C89.55571769 -0.02095607 90.70381018 -0.02141577 91.88669335 -0.0218894 C94.2190245 -0.02284857 96.55135565 -0.02382121 98.88368679 -0.02480717 C120.75575332 -0.03336246 142.62778213 -0.02352494 164.49984247 -0.00740607 C183.26554396 0.00599544 202.03118978 0.00367065 220.79689026 -0.01016235 C242.58907315 -0.02621879 264.38122297 -0.03253658 286.17341095 -0.02332556 C288.49747439 -0.02236992 290.82153783 -0.02142681 293.14560127 -0.02049637 C294.28908072 -0.02003354 295.43256017 -0.01957072 296.61069052 -0.01909386 C304.66718999 -0.01650404 312.72366849 -0.02087486 320.78016472 -0.02793503 C330.59966242 -0.03635099 340.41908819 -0.03406788 350.23857766 -0.0180928 C355.24827267 -0.01021116 360.25784777 -0.00711671 365.26754189 -0.01704025 C369.85497596 -0.02598987 374.44217911 -0.0210498 379.02959228 -0.0051076 C380.68764266 -0.00176092 382.34571262 -0.00345132 384.00375038 -0.01073496 C403.23834602 -0.08873871 403.23834602 -0.08873871 409.13921541 4.89866984 C416.53749319 12.43339861 418.32032621 23.70409668 420.33180237 33.64657593 C420.62216407 35.05008807 420.91298284 36.45350572 421.20419312 37.85684204 C426.08105295 61.50425311 430.66701689 85.21293261 435.31071484 108.90707922 C436.53507578 115.15363558 437.76239609 121.39960869 438.9900465 127.64551926 C440.31066212 134.36443144 441.62986578 141.08362078 442.94898987 147.80282593 C443.31571839 149.67023563 443.31571839 149.67023563 443.68985558 151.57537079 C444.83209735 157.39389384 445.97119438 163.21298203 447.10240173 169.03366089 C447.90555507 173.16269187 448.72790486 177.28709829 449.56730652 181.40890503 C449.93846935 183.26579023 450.3095958 185.12268269 450.68067932 186.97958374 C450.93585091 188.19773836 450.93585091 188.19773836 451.19617748 189.44050217 C452.5355711 196.22358692 453.79001732 203.37668958 450.71852112 209.75595093 C443.87536498 217.31943929 436.04212252 218.66822299 426.32398987 219.28329468 C387.41989332 220.23776221 387.41989332 220.23776221 375.37477112 209.65048218 C364.53404813 198.53874111 359.53269778 183.26848101 354.53083801 168.92901611 C352.82299998 164.0427394 351.06985999 159.17280186 349.31617737 154.30282593 C348.80181122 152.87280495 348.80181122 152.87280495 348.27705383 151.41389465 C334.56616886 109.71059855 334.56616886 109.71059855 305.34352112 79.38095093 C288.91417628 72.80921299 270.03462824 76.74951566 252.34352112 76.38095093 C252.34352112 191.22095093 252.34352112 306.06095093 252.34352112 424.38095093 C284.81041445 426.40947068 284.81041445 426.40947068 318.34352112 416.38095093 C328.80324371 404.21953811 330.06457587 385.08748431 332.76808167 369.89364624 C334.45384575 360.4763282 336.21554839 351.13354218 338.84742737 341.92782593 C339.1311747 340.90981903 339.1311747 340.90981903 339.4206543 339.87124634 C341.03499665 334.50408875 343.21274682 330.22767066 347.48072815 326.52865601 C351.70324017 324.83583416 355.63969714 324.97211381 360.14820862 325.01766968 C361.1043808 325.01717117 362.06055298 325.01667267 363.04570007 325.01615906 C365.07142715 325.01849719 367.09715725 325.02821031 369.12281799 325.04476929 C372.17322355 325.06810441 375.22273796 325.06535975 378.27320862 325.0586853 C405.66906175 325.09256265 405.66906175 325.09256265 413.05397034 328.70785522 C421.06907181 338.0656443 418.76628299 354.41065178 418.73170471 365.88143921 C418.73577493 368.15267183 418.74111933 370.42390247 418.74763489 372.69512939 C418.76125903 378.83544007 418.75603048 384.97559878 418.74649763 391.11591196 C418.73887747 397.55475669 418.74595301 403.99358882 418.75065613 410.43243408 C418.75645461 421.93231324 418.74716123 433.43211499 418.73187812 444.93198203 C418.7184703 455.34290285 418.72081072 465.75372331 418.7346344 476.16464233 C418.75071471 488.28060502 418.75665178 500.39648904 418.74779761 512.5124644 C418.74312874 518.91666057 418.74247483 525.32078771 418.75240707 531.7249794 C418.76109206 537.74480933 418.75502665 543.76445023 418.7377243 549.7842598 C418.73376803 551.98926988 418.73487873 554.19429596 418.7415123 556.39929962 C418.74975158 559.416925 418.73937737 562.43395056 418.72447205 565.45153809 C418.73116421 566.31692424 418.73785638 567.18231039 418.74475133 568.07392037 C418.68421058 574.42464416 418.10331135 581.88364826 414.03324163 587.04138291 C402.92009423 596.95125748 380.01451433 594.91465901 366.09352112 594.19345093 C358.86855813 593.43846141 352.21721036 591.5820746 346.40602112 587.13095093 C341.90674009 581.13190955 339.51676663 574.48813443 337.53102112 567.31845093 C337.28166809 566.43721558 337.03231506 565.55598022 336.77540588 564.64804077 C334.13803136 555.07341916 332.02151499 545.37196471 329.96730042 535.65805054 C326.00879818 515.06506976 326.00879818 515.06506976 313.34352112 499.38095093 C294.44167747 491.82021347 272.6981847 496.74442706 252.34352112 496.38095093 C252.34352112 634.65095093 252.34352112 772.92095093 252.34352112 915.38095093 C290.44677599 916.81748772 290.44677599 916.81748772 323.34352112 900.38095093 C325.25675103 897.80624617 326.72643273 895.12326637 328.15602112 892.25595093 C328.5735968 891.43288452 328.99117249 890.60981812 329.42140198 889.7618103 C340.86034193 866.49674664 348.20548888 841.17263962 356.29205322 816.61453247 C359.18144081 807.84536778 362.09318808 799.08530076 365.11695862 790.36141968 C365.38659424 789.57573105 365.65622986 788.79004242 365.93403625 787.98054504 C370.75217181 774.20049492 376.9665205 759.13254489 390.78102112 752.38095093 C400.62641165 748.19011177 410.79529361 748.04234145 421.34352112 748.06845093 C422.64547424 748.05233765 423.94742737 748.03622437 425.28883362 748.0196228 C436.24608379 748.01408884 445.53447043 749.52946706 454.34352112 756.38095093 C459.2469807 761.28441051 460.44491462 766.58334267 460.49490356 773.36305237 C460.44678108 779.52774017 459.64006354 785.46311722 458.67140198 791.54232788 C458.49255683 792.7047038 458.31371168 793.86707972 458.12944698 795.06467915 C457.54473267 798.83851987 456.94601058 802.60990942 456.34352112 806.38095093 C456.14401478 807.63611385 455.94450844 808.89127678 455.73895645 810.18447495 C454.33512701 818.99289536 452.90178911 827.79632178 451.45823407 836.5983026 C451.09123898 838.83666361 450.72479689 841.0751145 450.3585186 843.31359291 C449.07115512 851.18073081 447.78148673 859.04748707 446.48976135 866.91390991 C445.30038871 874.15744942 444.1164851 881.40186881 442.93503243 888.6467039 C441.90675917 894.9505192 440.87438894 901.25365534 439.83904022 907.55631238 C439.22672447 911.28423578 438.61592515 915.01238944 438.00941658 918.74126244 C435.77848445 932.44763514 433.50684668 946.14326483 430.75733948 959.75717163 C430.48095689 961.16444787 430.48095689 961.16444787 430.19899082 962.60015392 C426.96880309 978.05302198 426.96880309 978.05302198 422.68302822 981.85336781 C411.44003195 988.51591369 396.00071062 986.52808281 383.37843323 986.5146637 C381.69355945 986.51653547 380.00868611 986.51883763 378.32381344 986.52152902 C373.72643584 986.52760777 369.12907653 986.5275181 364.53169584 986.52633464 C359.56093793 986.52612965 354.59018575 986.53165867 349.61943054 986.53639221 C339.89453961 986.54467689 330.16965473 986.54744603 320.44476056 986.54800459 C312.53852582 986.54848062 304.63229307 986.55053972 296.72605896 986.55370522 C274.29100591 986.56250449 251.85595764 986.56712553 229.42090285 986.56637474 C228.2129743 986.56633479 227.00504575 986.56629483 225.76051331 986.56625366 C224.55110403 986.56621278 223.34169476 986.5661719 222.09563673 986.56612978 C202.48579604 986.56572313 182.87597453 986.57529934 163.26613939 986.58939203 C143.11189252 986.60376132 122.95765502 986.61066196 102.8034029 986.60979825 C91.49579367 986.60946656 80.18820458 986.61220181 68.88059998 986.6229763 C59.25642192 986.63208839 49.63227314 986.63425058 40.00809264 986.62746688 C35.10117563 986.62420577 30.19431475 986.62413036 25.28740311 986.63282013 C20.78944595 986.64070362 16.29158929 986.63923488 11.79363453 986.630536 C10.17267154 986.62900513 8.55170098 986.63080149 6.93074691 986.63639607 C-20.14241073 986.72359624 -20.14241073 986.72359624 -26.65647888 980.38095093 C-29.11837209 975.45716451 -30.30191058 970.93236189 -30.84397888 965.44345093 C-30.92148376 964.68346802 -30.99898865 963.92348511 -31.07884216 963.14047241 C-31.68924038 956.41737202 -31.93337096 949.69191223 -32.03147888 942.94345093 C-32.05750183 941.9619104 -32.08352478 940.98036987 -32.1103363 939.96908569 C-32.1345164 930.07609019 -29.57976985 921.36177014 -22.60960388 914.14266968 C-17.5380681 909.5681444 -11.93641278 906.4755504 -5.82176208 903.52182007 C5.56854907 898.0190818 16.32825032 891.7936606 21.10895059 879.39598022 C23.49387438 872.26859207 23.76480809 865.69304837 23.72104454 858.219944 C23.72540486 856.91859727 23.72976519 855.61725053 23.73425764 854.27646905 C23.74590362 850.67323182 23.73896924 847.07023684 23.72892378 843.46700371 C23.72129873 839.54363593 23.73109931 835.62030467 23.73865378 831.69694209 C23.74948178 824.82375741 23.7491645 817.95064344 23.7415123 811.07745552 C23.73016434 800.85700143 23.73596626 790.63660698 23.74513722 780.41615329 C23.76093589 762.16353621 23.75956485 743.91095062 23.75090048 725.65833054 C23.74335647 709.68774178 23.74138249 693.71716458 23.74496841 677.7465744 C23.74519757 676.68757726 23.74542672 675.62858012 23.74566282 674.53749215 C23.74659682 670.23881806 23.74755202 665.94014396 23.74854212 661.64146988 C23.75772001 621.31381123 23.74939682 580.98617267 23.73325142 540.65851712 C23.71901038 504.81484498 23.72029185 468.97120482 23.7346344 433.12753296 C23.75069003 392.8680134 23.75707327 352.60851157 23.74779761 312.34898925 C23.74683543 308.05934763 23.74589691 303.76970601 23.74496841 299.48006439 C23.74473118 298.42382382 23.74449395 297.36758324 23.74424953 296.27933537 C23.7408341 280.31440527 23.74483345 264.34948796 23.75240707 248.38455963 C23.76097234 230.23867173 23.7588669 212.09282028 23.74256484 193.94693694 C23.73373776 183.78567594 23.73320719 173.62449383 23.74450337 163.46323483 C23.7512114 156.68271361 23.7470786 149.90225587 23.73398906 143.12174408 C23.72682768 139.25407651 23.72446427 135.38656611 23.73520701 131.51890329 C23.746645 127.35866788 23.73504645 123.19882066 23.72104454 119.03859329 C23.72806804 117.82988959 23.73509154 116.62118588 23.74232787 115.37585479 C23.69674284 108.65401245 23.23593147 103.98473788 18.89820862 98.58016968 C11.09723426 91.55929275 1.26076933 87.19711049 -8.14476013 82.72079468 C-22.34562329 75.95418263 -22.34562329 75.95418263 -25.77366638 69.17001343 C-29.48581377 58.24569398 -28.83769263 45.77164629 -28.84397888 34.38095093 C-28.85622498 33.2130603 -28.86847107 32.04516968 -28.88108826 30.84188843 C-28.91773711 8.80370931 -28.91773711 8.80370931 -24.65647888 3.38095093 C-16.86402463 -0.6834133 -8.5616823 -0.03755585 0 0 Z " fill="#0B42CF" transform="translate(3004.656478881836,124.61904907226563)"/>
<path d="M0 0 C0.91881958 -0.00979385 1.83763916 -0.01958771 2.78430176 -0.02967834 C41.22632038 -0.35524184 41.22632038 -0.35524184 60.15625 4.23828125 C61.06616699 4.45258789 61.97608398 4.66689453 62.91357422 4.88769531 C75.62633061 7.96672357 87.43846912 12.461057 99.15625 18.23828125 C99.88328125 18.59293457 100.6103125 18.94758789 101.359375 19.31298828 C111.65921143 24.38757525 121.10442413 30.17390383 130.15625 37.23828125 C131.17589844 38.03363281 132.19554688 38.82898438 133.24609375 39.6484375 C147.5148343 51.29014638 161.05554047 64.52784648 171.87158203 79.46630859 C173.23700024 81.34966196 174.63198384 83.20905768 176.02734375 85.0703125 C219.34148616 143.73388199 234.80665666 217.86405376 241.39453125 289.09375 C241.45778595 289.76662552 241.52104065 290.43950104 241.58621216 291.13276672 C245.25746615 332.41297311 243.15625 373.76818818 243.15625 415.23828125 C152.73625 415.23828125 62.31625 415.23828125 -30.84375 415.23828125 C-30.72 456.26140625 -30.59625 497.28453125 -30.46875 539.55078125 C-30.43475098 552.46114502 -30.40075195 565.37150879 -30.36572266 578.6730957 C-30.32577376 590.33639218 -30.32577376 590.33639218 -30.28329468 601.99967957 C-30.26457297 607.15848805 -30.25097848 612.31728815 -30.24105835 617.47612 C-30.22832044 624.08967381 -30.20541751 630.70314465 -30.17651629 637.31665075 C-30.16752121 639.72309352 -30.16163105 642.1295508 -30.15949559 644.53600943 C-30.14662818 656.97345444 -29.8319059 669.33096951 -28.93319702 681.73893738 C-28.85385599 682.84040582 -28.77451495 683.94187426 -28.69276965 685.07672054 C-26.51557251 712.58197674 -17.68238445 738.4044923 3.28515625 757.140625 C17.72570198 768.60554312 33.40934911 769.42417506 51.15625 768.23828125 C66.28417414 766.35408471 80.44414603 759.84185213 92.15625 750.23828125 C92.99800781 749.56023438 93.83976562 748.8821875 94.70703125 748.18359375 C125.19950886 722.29106999 135.85143261 678.51940307 139.08886719 640.41186523 C139.80754091 631.11109836 140.28344063 621.80851553 140.65625 612.48828125 C141.7967266 584.2583385 141.7967266 584.2583385 148.21875 576.86328125 C157.66988465 571.634994 168.07037612 571.08248908 178.62890625 571.03515625 C179.6290123 571.02945618 180.62911835 571.0237561 181.65953064 571.0178833 C183.77162633 571.00846793 185.88373647 571.00191315 187.99584961 570.99804688 C191.1843519 570.98838548 194.37219672 570.95734663 197.56054688 570.92578125 C223.49961807 570.78875097 223.49961807 570.78875097 235.15625 577.23828125 C242.2548139 584.33684515 243.30510336 594.08563574 243.359375 603.66796875 C243.36638931 604.48661911 243.37340363 605.30526947 243.38063049 606.14872742 C243.39817403 608.80363434 243.40449074 611.45831834 243.40625 614.11328125 C243.40692474 615.01843475 243.40759949 615.92358826 243.40829468 616.85617065 C243.39167434 630.86836194 242.78193067 644.44237617 240.15625 658.23828125 C239.99527832 659.1411084 239.83430664 660.04393555 239.66845703 660.97412109 C230.74856999 710.23486137 206.67068504 755.21609311 172.15625 791.23828125 C171.59953613 791.82754395 171.04282227 792.41680664 170.46923828 793.02392578 C136.62992872 828.70343948 88.31551573 850.7204771 39.00219727 852.45922852 C33.28267849 852.60305859 27.56482226 852.62432771 21.84375 852.61328125 C20.83178558 852.61306976 19.81982117 852.61285828 18.77719116 852.61264038 C2.59520794 852.5789502 -12.98595063 851.72745247 -28.84375 848.23828125 C-29.70806641 848.05104492 -30.57238281 847.86380859 -31.46289062 847.67089844 C-37.00064764 846.42908538 -42.42878376 844.93413293 -47.84375 843.23828125 C-48.64828613 842.9870752 -49.45282227 842.73586914 -50.28173828 842.47705078 C-75.08548763 834.5768123 -98.53449926 822.61093714 -118.84375 806.23828125 C-119.77316406 805.49964844 -120.70257813 804.76101563 -121.66015625 804 C-127.9209266 798.95829481 -133.91383326 793.6622021 -139.84375 788.23828125 C-140.85872377 787.32739883 -141.87437626 786.41727225 -142.890625 785.5078125 C-147.92783017 780.97918638 -152.80290219 776.4340959 -157.16015625 771.23046875 C-159.02886177 769.01923948 -160.99609194 766.91969424 -162.96875 764.80078125 C-222.41149201 698.69722265 -244.33145981 608.0391145 -255.84375 483.23828125 C-255.90159668 482.21299316 -255.95944336 481.18770508 -256.01904297 480.13134766 C-260.83531639 392.36655507 -255.59689373 300.24036817 -157.0625 77.05078125 C-154.36679152 74.06964481 -151.62531841 71.13890153 -148.84375 68.23828125 C-148.04565918 67.39934326 -148.04565918 67.39934326 -147.23144531 66.54345703 C-139.51904061 58.47725188 -131.53222062 51.1595571 -122.56298828 44.51318359 C-120.89403678 43.27557145 -119.24197447 42.01774306 -117.58984375 40.7578125 C-84.25624529 15.74022654 -41.83009242 0.3692247 0 0 Z M-17.84375 90.23828125 C-18.38773438 90.8003125 -18.93171875 91.36234375 -19.4921875 91.94140625 C-26.88325644 100.57057303 -28.99560579 111.9595748 -29.97018433 122.94987488 C-30.05336501 123.86314645 -30.13654569 124.77641802 -30.222247 125.71736449 C-31.05039471 135.53604741 -31.11083945 145.31840497 -31.07080078 155.1652832 C-31.07023466 157.15850316 -31.07055714 159.15172352 -31.07168579 161.14494324 C-31.07225246 166.48241028 -31.06061115 171.81978481 -31.04653788 177.15723062 C-31.0339143 182.76254556 -31.03285096 188.36786334 -31.03048706 193.97319031 C-31.02430609 204.55480211 -31.00794175 215.13637189 -30.98778808 225.7179653 C-30.96532289 237.77867642 -30.95440912 249.83938969 -30.94439721 261.90011656 C-30.92357197 286.67953336 -30.88693877 311.45889265 -30.84375 336.23828125 C-3.78375 336.23828125 23.27625 336.23828125 51.15625 336.23828125 C51.20146126 309.11674129 51.23827666 281.99523202 51.25987434 254.8736639 C51.27017071 242.27961309 51.28419961 229.68558741 51.30712891 217.09155273 C51.32711307 206.10987806 51.33997835 195.12822161 51.34442699 184.14652926 C51.34702587 178.33612185 51.35310002 172.52576655 51.36771011 166.7153759 C51.38137353 161.23663123 51.38545506 155.75795969 51.38246536 150.2791996 C51.38301163 148.27786231 51.38693652 146.27652235 51.39466095 144.27519989 C51.61197022 113.9401248 51.61197022 113.9401248 37.15625 88.23828125 C29.49670616 81.12696652 21.11651847 78.66647458 10.78125 78.80078125 C9.53734497 78.81322876 9.53734497 78.81322876 8.26831055 78.82592773 C-2.57827474 79.12371869 -10.37738381 82.27854284 -17.84375 90.23828125 Z " fill="#0A42CF" transform="translate(4782.84375,266.76171875)"/>
<path d="M0 0 C1.46445819 -0.00573832 1.46445819 -0.00573832 2.9585014 -0.01159257 C6.22101109 -0.02188885 9.48334368 -0.0179368 12.74586487 -0.01396179 C15.08856875 -0.0183101 17.43127121 -0.02349365 19.77397156 -0.02944946 C26.13134549 -0.04283724 32.48865997 -0.04341841 38.84604526 -0.04088616 C44.82605388 -0.03968102 50.80605419 -0.04589512 56.78605951 -0.05131962 C69.35294884 -0.06218788 81.91981131 -0.06003596 94.48670215 -0.05393478 C105.97513723 -0.04876538 117.46348753 -0.06002289 128.95190584 -0.07903299 C140.75854366 -0.09841937 152.56514139 -0.10666605 164.37179524 -0.10290974 C170.99621425 -0.10099902 177.62057015 -0.10373819 184.24497795 -0.11762428 C190.4740209 -0.13019317 196.70289403 -0.12826724 202.93193436 -0.11521339 C205.21679936 -0.11284611 207.50167629 -0.1155877 209.78652763 -0.12383652 C212.90801246 -0.13429243 216.02892625 -0.12621217 219.15039062 -0.11352539 C220.0522497 -0.12089968 220.95410877 -0.12827396 221.88329691 -0.13587171 C228.73936675 -0.07734068 233.82352573 1.45242656 239.88868713 4.76069641 C246.71700089 12.3477117 247.29134112 23.61786185 247.30665588 33.35444641 C247.30998428 34.10480164 247.31331268 34.85515686 247.31674194 35.62825012 C247.32177391 37.20478203 247.32415143 38.78132445 247.32398987 40.35786438 C247.32618105 42.75403999 247.34438902 45.14975795 247.36329651 47.54585266 C247.3662304 49.08621569 247.36821522 50.62658088 247.36915588 52.16694641 C247.3763414 52.87444031 247.38352692 53.5819342 247.39093018 54.31086731 C247.36465094 60.09866385 246.77158612 65.23194313 243.07618713 69.82319641 C239.29036363 72.96462443 235.26348769 75.58902464 231.13868713 78.26069641 C220.08060987 85.47496888 220.08060987 85.47496888 213.63633728 96.77992249 C211.2419538 108.71586615 214.02772014 121.03366662 216.34962463 132.74507141 C216.70777779 134.60448845 217.06495016 136.46409462 217.42124939 138.3238678 C218.63806274 144.64059444 219.88775621 150.9506535 221.13868713 157.26069641 C221.60092222 159.60141213 222.06303694 161.94215162 222.52503967 164.28291321 C225.80165811 180.86395942 229.12424727 197.43564409 232.45621467 214.00563174 C234.09057012 222.13436015 235.72031314 230.26401237 237.34962463 238.39375305 C237.57410255 239.5138201 237.57410255 239.5138201 237.80311537 240.65651476 C238.56152963 244.44086516 239.31986118 248.22523212 240.07813263 252.00961113 C240.68646231 255.04560442 241.29493181 258.08156963 241.90352631 261.11750984 C247.78784221 290.47154105 253.62993677 319.83380467 259.4461174 349.20141983 C260.13573356 352.68328386 260.82561109 356.16509602 261.51554871 359.64689636 C265.66615866 380.59503254 269.81059196 401.54431169 273.90821838 422.50288391 C274.18261148 423.90541796 274.45701508 425.30794996 274.73143005 426.71047974 C275.91291219 432.75096907 277.09101088 438.79208614 278.26173401 444.83467102 C278.64384333 446.79570006 279.02600059 448.75671976 279.40821838 450.71772766 C279.57368668 451.57925446 279.73915497 452.44078125 279.90963745 453.32841492 C280.65841258 457.41042506 280.65841258 457.41042506 282.13868713 461.26069641 C282.26510055 460.64132517 282.39151396 460.02195393 282.52175808 459.38381386 C296.01825683 393.25751972 309.51625989 327.13152962 323.0627594 261.01545715 C324.11160911 255.89630617 325.16010268 250.77708246 326.20826721 245.65779114 C335.64413039 199.57367273 335.64413039 199.57367273 340.01166916 178.63730431 C340.49866544 176.30227356 340.98495363 173.96709654 341.47099304 171.63186646 C341.77557061 170.16886519 342.08016607 168.70586765 342.38478088 167.24287415 C342.52962355 166.5471911 342.67446621 165.85150805 342.82369804 165.13474369 C343.74703944 160.70392482 344.67984082 156.2751683 345.61524963 151.84687805 C353.06735879 119.8245713 353.06735879 119.8245713 345.38868713 88.82319641 C341.42464951 82.85761269 336.70923965 78.34473666 330.95118713 74.13569641 C324.16353002 69.15633405 321.02037121 63.40869942 319.61305237 55.19160461 C319.08352727 50.80360486 318.95861812 46.52289137 318.93556213 42.10835266 C318.92986206 41.24938889 318.92416199 40.39042511 318.91828918 39.50543213 C318.90888973 37.6977103 318.90232545 35.88997173 318.89845276 34.08222961 C318.88872811 31.33477212 318.85764926 28.5880576 318.82618713 25.84077454 C318.81965737 24.07580497 318.81440679 22.31083012 318.81056213 20.54585266 C318.79821533 19.73415115 318.78586853 18.92244965 318.77314758 18.08615112 C318.79315357 12.90228391 319.21369089 7.69219257 322.13868713 3.26069641 C325.82566872 0.62141318 328.36200454 -0.11428771 332.86940002 -0.11352539 C334.58535873 -0.12404686 334.58535873 -0.12404686 336.33598328 -0.13478088 C338.20478653 -0.12331528 338.20478653 -0.12331528 340.11134338 -0.11161804 C341.43052765 -0.11526871 342.74971191 -0.11891937 344.10887146 -0.12268066 C347.72046385 -0.13207279 351.33178443 -0.12267851 354.94335556 -0.10934854 C358.7259957 -0.09801703 362.50862279 -0.10214286 366.29127502 -0.10409546 C372.64312673 -0.1049779 378.99487161 -0.09390857 385.34669495 -0.07548523 C392.6863529 -0.05431835 400.02585439 -0.05080803 407.36553669 -0.05704719 C414.43112564 -0.06274546 421.49665958 -0.05708972 428.5622406 -0.04587364 C431.56690998 -0.04123379 434.57154566 -0.04035115 437.57621765 -0.04245949 C441.77290517 -0.04469598 445.9693743 -0.03022095 450.16603088 -0.01396179 C451.41189972 -0.01643921 452.65776855 -0.01891663 453.94139099 -0.02146912 C455.08536346 -0.01438431 456.22933594 -0.0072995 457.40797424 0 C458.39978195 0.00205287 459.39158966 0.00410574 460.41345215 0.00622082 C464.29558598 0.36872472 467.15782779 1.24480637 469.88868713 4.07319641 C472.15031205 8.03104002 472.26528616 12.13213191 472.28395081 16.61421204 C472.29352058 18.18108765 472.29352058 18.18108765 472.30328369 19.77961731 C472.30495293 21.45634521 472.30495293 21.45634521 472.30665588 23.16694641 C472.30998428 24.32440369 472.31331268 25.48186096 472.31674194 26.6743927 C472.32179869 29.11868391 472.32415066 31.56298201 472.32398987 34.00727844 C472.32617901 37.7468143 472.34435556 41.48605636 472.36329651 45.22554016 C472.36623014 47.60184124 472.36821514 49.97814371 472.36915588 52.35444641 C472.3763414 53.47226501 472.38352692 54.59008362 472.39093018 55.74177551 C472.38785355 56.78635925 472.38477692 57.83094299 472.38160706 58.90718079 C472.38303207 59.82253601 472.38445709 60.73789124 472.38592529 61.6809845 C472.04549349 65.23308983 471.21245029 68.19465943 468.64576721 70.74287415 C468.0723761 71.13934143 467.49898499 71.53580872 466.90821838 71.94429016 C466.26948792 72.39739563 465.63075745 72.8505011 464.97267151 73.31733704 C464.30558167 73.77302063 463.63849182 74.22870422 462.95118713 74.69819641 C436.18945605 93.3648367 431.29793531 121.97259093 425.3617382 152.36917639 C424.62576125 156.1274293 423.87949992 159.8836415 423.13453674 163.64012146 C421.69013753 170.93172143 420.2549933 178.22511246 418.82296979 185.51915181 C417.14059592 194.08598807 415.44796552 202.65078895 413.75493395 211.2155242 C410.00150344 230.20543213 406.26336255 249.19833343 402.52885932 268.19197106 C400.99290514 276.00329164 399.45471412 283.81417083 397.91603088 291.62495422 C394.09683555 311.01358836 390.27961943 330.40260795 386.47145081 349.79341125 C380.71787782 379.08806452 374.94711797 408.37925432 369.15821838 437.66694641 C368.98527244 438.54193094 368.8123265 439.41691547 368.63413978 440.31841469 C366.5068237 451.08089492 364.37903411 461.84328151 362.25109226 472.60563803 C358.87964918 489.65719737 355.50874947 506.70886412 352.13868713 523.76069641 C351.96613096 524.63379393 351.7935748 525.50689144 351.61578965 526.40644646 C345.42372389 557.73776143 339.24657197 589.07198098 333.08442688 620.40919495 C331.89016862 626.48243956 330.69521746 632.55554757 329.50003624 638.62861061 C324.96327696 661.68226819 320.4338649 684.73732746 315.92739487 707.79692459 C313.62950905 719.55493551 311.32764541 731.31216375 309.02334976 743.06892014 C307.51226615 750.77981132 306.00505575 758.49143846 304.50320899 766.20413411 C303.36241108 772.06076088 302.2150208 777.91607739 301.06538773 783.77097702 C300.59898827 786.15182329 300.13469802 788.53308402 299.67283249 790.914814 C297.35727954 802.8496949 294.90233266 814.74041762 292.06300354 826.5629425 C291.83048574 827.56643045 291.59796795 828.5699184 291.35840416 829.60381508 C290.11580278 834.62347541 289.08115451 838.64880986 285.13868713 842.26069641 C282.14510376 843.25990928 279.35301155 843.39821112 276.21157837 843.42805481 C275.22043533 843.43954559 274.2292923 843.45103638 273.20811462 843.46287537 C272.12696381 843.4702774 271.04581299 843.47767944 269.93190002 843.48530579 C268.78842606 843.49669586 267.64495209 843.50808594 266.46682739 843.51982117 C255.94932949 843.61714995 245.43123916 843.66870989 234.91335392 843.705513 C227.14191322 843.73311251 219.37138256 843.78395351 211.60032088 843.8659873 C205.4717906 843.92848939 199.34362304 843.95272948 193.21479607 843.96377563 C190.6091859 843.97420271 188.00359545 843.99668883 185.39819527 844.03137207 C181.75634495 844.07736585 178.11694317 844.07960243 174.47486877 844.07124329 C173.39574219 844.09483917 172.3166156 844.11843506 171.20478821 844.14274597 C164.08760519 844.0634959 164.08760519 844.0634959 161.38641167 841.77824402 C158.42073635 837.76421798 156.69038647 833.1800788 155.20118713 828.44819641 C154.96645691 827.70266006 154.73172668 826.95712372 154.48988342 826.18899536 C146.52135156 800.12337574 142.15100938 772.84236936 136.84869385 746.14549637 C135.87972603 741.27026966 134.90776059 736.39564245 133.9357872 731.52101421 C130.66203875 715.10250596 127.39853699 698.6819692 124.13868713 682.26069641 C123.91401764 681.12900024 123.68934814 679.99730408 123.45787048 678.83131409 C119.37541691 658.26601317 115.29923687 637.69947032 111.22755432 617.1320343 C103.00719004 575.61093299 94.75382259 534.09642147 86.49690247 492.58257675 C83.1792983 475.9024228 79.86201738 459.22220456 76.54493713 442.54194641 C76.27386768 441.17885853 76.27386768 441.17885853 75.99732208 439.78823352 C69.73369826 408.29103936 63.47672477 376.7925309 57.22677517 345.29262066 C55.6786977 337.49048948 54.12975985 329.68852957 52.58007336 321.8867178 C51.28813995 315.38252537 49.99653174 308.87826839 48.70509338 302.37397766 C48.44803179 301.07932901 48.19097019 299.78468037 47.92611885 298.45079994 C44.32775515 280.32620932 40.74251834 262.19905187 37.16531944 244.07027245 C34.40449282 230.07911437 31.63911256 216.08886053 28.87098122 202.09914589 C27.02924216 192.79002196 25.191796 183.48007139 23.36002773 174.1689803 C22.11182992 167.82616509 20.85854029 161.48436895 19.60142285 155.14331561 C18.87477598 151.47713463 18.15036514 147.81055034 17.43215752 144.14270592 C10.61580636 105.45537016 10.61580636 105.45537016 -11.7822113 74.42060852 C-18.85249582 67.88019453 -22.91455035 62.05700871 -23.37390137 52.17861938 C-23.43707662 49.09966921 -23.41344691 46.02818713 -23.34837341 42.94941711 C-23.29926646 40.59494424 -23.28689506 38.24258737 -23.28123474 35.88764954 C-23.10330341 11.07972842 -23.10330341 11.07972842 -19.22239685 4.46894836 C-13.92281408 -0.48759452 -6.85309676 -0.02864768 0 0 Z " fill="#0A42CF" transform="translate(2147.861312866211,275.7393035888672)"/>
<path d="M0 0 C0.69915527 -0.0010675 1.39831055 -0.00213501 2.11865234 -0.00323486 C14.48337385 0.02388075 25.79256889 1.5622266 37.5625 5.4375 C38.22958984 5.64616699 38.89667969 5.85483398 39.58398438 6.06982422 C54.75358094 10.88989067 68.97408064 18.66939872 83.18359375 25.734375 C93.849291 31.22426267 93.849291 31.22426267 105.4375 30.5 C109.02478669 27.01822175 109.96433378 22.58230595 111.26953125 17.90234375 C112.70743137 12.80433424 113.99335685 8.50235748 117.5625 4.4375 C124.42234143 0.75351109 131.12087147 0.27867424 138.77734375 0.234375 C139.93829308 0.22582489 139.93829308 0.22582489 141.12269592 0.21710205 C142.7522751 0.20769884 144.3818729 0.2011368 146.01147461 0.19726562 C148.48910888 0.18754274 150.96591866 0.15646893 153.44335938 0.125 C155.03384929 0.11847015 156.62434508 0.11321961 158.21484375 0.109375 C158.94734848 0.0970282 159.67985321 0.0846814 160.43455505 0.07196045 C165.4236122 0.09332394 169.18933689 0.80691861 173.5625 3.4375 C177.68351827 8.49735457 179.58954412 13.89566795 180.92285156 20.18969727 C181.12266758 21.07841554 181.3224836 21.96713381 181.52835464 22.88278294 C184.68296179 37.16107982 187.4636816 51.52524343 190.29633999 65.87012172 C191.14587041 70.16792229 191.99988496 74.46483198 192.85333252 78.76185608 C194.28132915 85.95489201 195.70641364 93.14849951 197.12939453 100.3425293 C199.13490671 110.48155337 201.14618412 120.61942788 203.15837812 130.75712764 C204.55774044 137.80851001 205.95564631 144.86018122 207.35333729 151.91189504 C207.69082782 153.61452709 208.02836944 155.31714902 208.36596203 157.01976085 C209.32587574 161.86108733 210.284891 166.7025899 211.24241447 171.54438972 C211.53194744 173.00776355 211.82178338 174.47107747 212.11194801 175.93432617 C212.50848986 177.93435538 212.90378004 179.93463264 213.29901123 181.93492126 C213.63079439 183.61130881 213.63079439 183.61130881 213.96928024 185.32156277 C215.1075169 191.30024765 215.77007857 196.92843219 215.8125 203 C215.8434375 204.1127832 215.8434375 204.1127832 215.875 205.24804688 C215.91633981 211.05112276 214.60387614 214.26853785 210.5625 218.5625 C196.57818875 227.30269453 174.58926688 225.68215192 159 222.125 C143.48177915 217.72712365 135.70743552 205.33273044 128.15332031 191.93896484 C127.13808438 190.11387021 126.12380064 188.28824566 125.11035156 186.4621582 C113.78807897 166.07485808 100.66869834 146.99073714 86.5625 128.4375 C86.07442871 127.79103516 85.58635742 127.14457031 85.08349609 126.47851562 C71.86686977 109.02655096 57.97938782 92.57646261 36.5625 85.4375 C29.60879779 84.7716188 23.08025328 84.3690557 17.27734375 88.6875 C11.23570311 94.85300115 7.69930096 102.8488402 7.1875 111.4375 C8.26636395 143.7494752 33.08686183 180.16259422 48.87353516 207.48291016 C51.7482191 212.51173714 54.53430582 217.58963771 57.33200073 222.66152954 C62.48391846 231.9931568 67.71798376 241.24935714 73.28515625 250.33935547 C75.43173187 253.86528644 77.54513767 257.41106766 79.66455078 260.95336914 C85.44048103 270.60542855 91.25420605 280.23338609 97.10235596 289.84176636 C208.7122275 473.25195882 208.7122275 473.25195882 227.75 647.5 C227.74906342 648.49428009 227.74812683 649.48856018 227.74716187 650.51296997 C227.71714414 665.23363494 227.55772481 679.82925819 225.5625 694.4375 C225.40652344 695.59137207 225.25054687 696.74524414 225.08984375 697.93408203 C217.90539359 749.12328943 197.98394828 798.75508755 155.69970703 830.84912109 C145.32329446 838.41761818 133.83459502 844.61389193 121.5625 848.4375 C119.70431641 849.0253125 119.70431641 849.0253125 117.80859375 849.625 C98.17142978 855.17953896 74.9670606 854.7550403 55.5625 848.4375 C54.89154297 848.22319336 54.22058594 848.00888672 53.52929688 847.78808594 C37.89653402 842.65928552 23.97023369 834.81733281 10.08837891 826.10229492 C-2.73322474 817.41999152 -2.73322474 817.41999152 -17.4375 814.4375 C-22.78135419 818.42124672 -23.49926111 822.47518368 -24.5 828.6875 C-27.3227699 843.8613284 -27.3227699 843.8613284 -32.125 849.375 C-40.44253858 853.19657178 -49.57084283 852.77839537 -58.52075195 852.75317383 C-60.86652034 852.75001143 -63.21102715 852.77354312 -65.55664062 852.79882812 C-74.75511657 852.83742441 -83.19225151 852.51623281 -91.3125 847.75 C-96.20582038 842.42491605 -97.77298897 836.59696589 -99.35908508 829.70533752 C-99.61950198 828.5837184 -99.61950198 828.5837184 -99.88517982 827.43944031 C-101.70961458 819.4492145 -103.19258651 811.40683675 -104.62963867 803.33959961 C-104.92380347 801.70783508 -105.21834546 800.07613851 -105.51322937 798.44450378 C-106.30262066 794.06933572 -107.08615003 789.69313885 -107.86801696 785.31662059 C-108.52505757 781.64117381 -109.18468599 777.96619307 -109.8441723 774.29118448 C-111.40114937 765.61378198 -112.95293209 756.9354613 -114.50170898 748.2565918 C-116.09186871 739.34651327 -117.69218816 730.43830036 -119.29727 721.53089899 C-120.6830299 713.83810648 -122.06174921 706.14407339 -123.43510419 698.44905668 C-124.25196116 693.87277258 -125.07150173 689.29701241 -125.89815331 684.7224865 C-126.67533489 680.42029432 -127.44363718 676.11660438 -128.20552254 671.81167793 C-128.48416618 670.24557937 -128.7657936 668.6800078 -129.05086517 667.11506653 C-130.46240152 659.35604128 -131.66751458 651.61723052 -132.30024719 643.75196838 C-132.40256307 642.48969201 -132.50487894 641.22741564 -132.6102953 639.92688847 C-132.38676925 635.41305482 -131.08417883 632.07201126 -127.8515625 628.86328125 C-117.47114659 622.40385214 -105.52535074 621.92155239 -93.64453125 621.99145508 C-91.43916085 621.99999357 -89.23636875 621.97103176 -87.03125 621.93945312 C-75.98388243 621.88309846 -65.02329708 622.72391959 -56.4375 630.4375 C-54.72546798 632.68576391 -53.15514652 634.88642106 -51.625 637.25 C-51.19268066 637.90943604 -50.76036133 638.56887207 -50.31494141 639.24829102 C-44.33897649 648.51136656 -39.47127877 658.333328 -34.5625 668.1875 C-21.63427335 694.13924736 -7.75893748 718.49847903 12.5625 739.4375 C13.72845703 740.65953125 13.72845703 740.65953125 14.91796875 741.90625 C25.07783989 751.84488442 37.92348826 757.73884408 52.0793457 757.75219727 C58.86019086 757.63032522 63.14575211 756.47635872 68.2578125 751.9296875 C75.2682408 744.64832477 76.09970833 735.76404152 76 726.0625 C75.98755249 724.48311646 75.98755249 724.48311646 75.97485352 722.87182617 C75.45449936 698.39295925 66.03657252 675.23527687 55.5625 653.4375 C55.2526416 652.79135742 54.9427832 652.14521484 54.62353516 651.47949219 C52.75358803 647.61170305 50.81826565 643.77966176 48.85595703 639.95800781 C47.88758337 638.07097691 46.92304477 636.1819771 45.96044922 634.29199219 C37.54541293 617.77641396 28.8305184 601.4945368 19.5625 585.4375 C18.34479647 583.31785516 17.12735685 581.19805869 15.91015625 579.078125 C12.14154771 572.52315164 8.35523598 565.97853712 4.5625 559.4375 C3.99450684 558.4573291 3.42651367 557.4771582 2.84130859 556.46728516 C-3.91849243 544.81170762 -10.75554829 533.20387404 -17.64700317 521.62582397 C-36.06907454 490.67240398 -53.86935062 459.39520742 -70.765625 427.58154297 C-72.24358877 424.80215957 -73.72943142 422.02721457 -75.21875 419.25390625 C-81.68465814 407.16666789 -87.65593049 394.86539584 -93.4375 382.4375 C-93.84866058 381.55490509 -93.84866058 381.55490509 -94.26812744 380.65447998 C-102.7122696 362.51087999 -110.64211973 344.27567009 -117.4375 325.4375 C-117.79005859 324.46893066 -118.14261719 323.50036133 -118.50585938 322.50244141 C-133.1594212 281.83399613 -140.8337742 239.12408586 -140.75317383 195.91333008 C-140.75002555 192.40348854 -140.77353582 188.8945032 -140.79882812 185.38476562 C-140.94697384 132.46947353 -129.73100627 80.36724371 -93.4375 40.4375 C-92.83550781 39.76332031 -92.23351563 39.08914063 -91.61328125 38.39453125 C-76.71651051 22.59720006 -56.4599205 10.81044381 -35.75 4.625 C-35.09805664 4.43010986 -34.44611328 4.23521973 -33.77441406 4.03442383 C-22.62408611 0.90477339 -11.55127488 -0.00377268 0 0 Z " fill="#0A42CF" transform="translate(4246.4375,266.5625)"/>
<path d="M0 0 C31.91602313 26.18929688 50.93802381 67.33776975 55 108 C55.37785036 114.39063475 55.38999097 120.78771882 55.375 127.1875 C55.37445618 128.0640625 55.37391235 128.940625 55.37335205 129.84375 C55.3297482 145.20346868 54.16681772 159.93031566 51 175 C50.68651611 176.51255371 50.68651611 176.51255371 50.36669922 178.05566406 C39.25511609 229.97630494 11.75260014 275.22832596 -20 317 C-20.46873535 317.62036133 -20.9374707 318.24072266 -21.42041016 318.87988281 C-27.10475962 326.39729611 -32.95575048 333.76848718 -39 341 C-39.45632812 341.5480127 -39.91265625 342.09602539 -40.3828125 342.66064453 C-65.56864935 372.82135757 -65.56864935 372.82135757 -81.8125 377.875 C-92.33177795 378.2875207 -100.82543742 370.75865647 -109 365 C-110.27734005 364.11067176 -111.55468373 363.22134876 -112.83203125 362.33203125 C-128.37659668 351.43510498 -128.37659668 351.43510498 -132 346 C-132.57320922 340.40787751 -131.47995197 337.21644133 -128.625 332.4375 C-128.26776855 331.83671631 -127.91053711 331.23593262 -127.54248047 330.61694336 C-124.17450703 325.05985955 -120.40127646 319.80857911 -116.57421875 314.5625 C-97.68717901 288.60624971 -78.06242011 257.87996782 -72 226 C-71.773125 224.865625 -71.54625 223.73125 -71.3125 222.5625 C-69.92828364 206.78243354 -72.06456573 193.02215958 -82.109375 180.3359375 C-88.62440629 172.89981558 -95.66052197 166.89417746 -103.75 161.25 C-110.73075596 156.36655099 -116.87779561 150.90903571 -123 145 C-123.86367187 144.19949219 -124.72734375 143.39898437 -125.6171875 142.57421875 C-140.98883446 127.94481642 -150.62432794 109.69173735 -155 89 C-155.19207031 88.09507812 -155.38414062 87.19015625 -155.58203125 86.2578125 C-158.93410633 60.13042354 -152.96338218 34.87455825 -136.8125 13.9375 C-125.72071273 0.01621364 -111.92524856 -10.2281616 -95 -16 C-93.31390625 -16.58974609 -93.31390625 -16.58974609 -91.59375 -17.19140625 C-60.88631164 -26.66583328 -24.98137902 -19.73876345 0 0 Z " fill="#0A43CF" transform="translate(2846,129)"/>
</svg>
